<svg width="160" height="169" viewBox="0 0 160 169" fill="none" xmlns="http://www.w3.org/2000/svg">
<path d="M52.6787 163.106C53.1046 162.965 53.537 162.823 53.9758 162.68C76.5056 154.174 123.96 81.852 144.524 45.1064L158.679 144.106C148.833 140.951 85.3084 152.513 53.9758 162.68C53.5337 162.847 53.1012 162.989 52.6787 163.106Z" fill="#FBE772"/>
<g filter="url(#filter0_f_9_7980)">
<path d="M88.8936 132.679L144.989 73.6787L150.894 118.179L88.8936 132.679Z" fill="black"/>
</g>
<path d="M22.4085 168.101C56.2233 163.224 68.8001 160.104 84.8153 155.191C100.121 150.5 139.227 132.668 148.158 119.416C156.267 107.417 146.602 41.176 139.361 0.243872C139.361 0.243872 69.0857 11.5076 45.6489 15.2467C30.5354 17.6608 16.2559 20.5029 1.58142 23.7626C2.52459 39.9668 4.33171 56.1091 6.99509 72.1207C10.8774 96.1048 22.4085 168.101 22.4085 168.101Z" fill="url(#paint0_linear_9_7980)"/>
<path opacity="0.72" d="M26.2985 49.6327C26.424 48.6473 26.4609 46.8803 26.409 44.3318C26.7727 44.2684 26.9828 44.3478 27.0393 44.5699C27.0572 44.6381 27.0686 44.6867 27.0737 44.7155C27.0845 44.7434 27.0934 44.8459 27.1005 45.0231C27.1066 45.1945 27.1133 45.4372 27.1205 45.7512C27.1334 46.0642 27.1434 46.4282 27.1503 46.8434C27.1573 47.2585 27.1586 47.6925 27.1543 48.1453C27.1382 49.2127 27.0882 50.1196 27.0042 50.8658C26.8216 51.0463 26.664 51.0976 26.5314 51.0196C26.4704 50.9767 26.4121 50.9155 26.3566 50.836C26.3001 50.7506 26.2358 50.6548 26.1637 50.5484C26.0716 50.4634 25.8878 50.2278 25.6123 49.8416C25.3367 49.4555 25.1139 49.1494 24.9436 48.9233C24.7791 48.6963 24.6205 48.486 24.4678 48.2926C24.1187 47.8598 23.8477 47.6186 23.6546 47.5689C23.5032 47.9284 23.2883 48.8789 23.0099 50.4203C22.9618 50.6904 22.9194 50.9417 22.8826 51.1741C22.8448 51.4008 22.8115 51.585 22.7827 51.7268L22.2414 51.7945L19.2041 47.1674C19.1875 47.1405 19.1767 47.1127 19.1716 47.0838C19.1666 47.055 19.1702 47.0246 19.1825 46.9927C19.2006 46.9598 19.2336 46.9273 19.2815 46.8952C19.3736 46.8434 19.4687 46.809 19.5668 46.7919C19.6649 46.7748 19.7377 46.7829 19.7852 46.8162C19.8374 46.8428 19.8801 46.883 19.9132 46.9367C19.9522 46.9894 19.9863 47.0488 20.0157 47.1151C20.0451 47.1813 20.0925 47.2652 20.1578 47.3669C20.2289 47.4675 20.3292 47.6165 20.4588 47.814C20.5942 48.0105 20.7373 48.2175 20.8883 48.435C21.0392 48.6525 21.1902 48.8701 21.3411 49.0876C21.491 49.2994 21.6322 49.4948 21.7645 49.674C22.0478 50.0707 22.22 50.2904 22.281 50.3333C22.6627 48.5657 22.9048 47.5153 23.0073 47.1822C23.1088 46.8433 23.1737 46.6357 23.202 46.5594C23.2484 46.4502 23.2889 46.3926 23.3235 46.3866C23.5718 46.3433 24.0869 46.8244 24.8689 47.83C25.0819 48.0963 25.2813 48.3529 25.4671 48.6001C25.9224 49.1987 26.1996 49.5429 26.2985 49.6327ZM32.2147 46.8256C31.9421 46.6947 31.6153 46.6625 31.2343 46.7289C30.8765 46.7914 30.5561 46.9156 30.2734 47.1017C29.7384 47.4448 29.3974 47.8255 29.2502 48.2437C29.1881 48.433 29.1741 48.6257 29.2083 48.822C29.2144 48.8566 29.2315 48.9547 29.2597 49.1164C29.2868 49.2722 29.3529 49.4808 29.458 49.742C29.562 49.9974 29.6382 50.2637 29.6865 50.5408C29.5663 50.5677 29.4707 50.5992 29.3997 50.6354C29.3286 50.6716 29.2672 50.6942 29.2152 50.7033C29.1633 50.7123 29.1131 50.6973 29.0646 50.6581C29.0219 50.618 28.9659 50.5356 28.8966 50.4109C28.8848 50.3772 28.8561 50.2811 28.8106 50.1225C28.7651 49.9639 28.7078 49.7717 28.6387 49.5458C28.5753 49.319 28.5027 49.0729 28.4207 48.8077C28.3435 48.5356 28.2674 48.2694 28.1922 48.0089C28.028 47.4427 27.905 47.027 27.8231 46.7617C27.7989 46.6232 27.8878 46.5363 28.0899 46.5011C28.2111 46.48 28.3154 46.5153 28.4028 46.6071C28.4891 46.6932 28.5641 46.7991 28.6277 46.9248C28.6902 47.0447 28.7383 47.1672 28.772 47.2922C28.8115 47.4161 28.8415 47.5031 28.8621 47.553C29.5053 46.739 30.3926 46.2334 31.5239 46.0361C31.6509 46.0139 31.7842 45.9937 31.9237 45.9753C31.9573 45.9635 32.0001 45.953 32.0521 45.944C32.104 45.9349 32.162 45.9605 32.2261 46.0207C32.3036 46.0904 32.3525 46.183 32.3726 46.2985C32.423 46.5871 32.3703 46.7628 32.2147 46.8256ZM33.4762 45.6689C33.7395 46.7352 34.0209 47.9738 34.3205 49.3847C34.317 49.5697 34.1941 49.6834 33.9517 49.7256C33.8882 49.7367 33.8198 49.7367 33.7465 49.7257C33.6779 49.7079 33.631 49.6775 33.6056 49.6343L32.9307 45.764L33.4762 45.6689ZM32.4656 44.6318C32.4304 44.4297 32.5311 44.3081 32.7678 44.2668C32.9236 44.2396 33.0566 44.2521 33.1668 44.3043C33.1952 44.3647 33.215 44.4267 33.226 44.4902C33.2361 44.5479 33.2231 44.6097 33.187 44.6755C33.1509 44.7412 33.0866 44.7822 32.9943 44.7983C32.9019 44.8144 32.806 44.8103 32.7066 44.786C32.6062 44.7559 32.5259 44.7045 32.4656 44.6318ZM35.9111 48.581L35.6868 47.1926C35.6486 46.9733 35.5957 46.7892 35.5281 46.6404L34.186 46.8744L34.0645 46.28L35.3633 46.0535L34.9737 43.8197C34.982 43.7647 35.0076 43.7067 35.0505 43.6457C35.1172 43.5508 35.1765 43.4988 35.2285 43.4897C35.2862 43.4797 35.3363 43.4769 35.3787 43.4814C35.4211 43.4859 35.4714 43.5188 35.5297 43.58C35.6885 43.9448 35.8348 44.5111 35.9687 45.2788C36.0019 45.4693 36.0433 45.6554 36.0928 45.8371C36.2735 45.7818 36.4562 45.738 36.6409 45.7058C36.6409 45.7058 36.791 45.6797 37.0912 45.6273C37.2008 45.6082 37.3008 45.5848 37.3912 45.5572L37.4739 46.1851L36.2037 46.3709L36.7679 49.3505C36.6721 49.4148 36.5867 49.4535 36.5116 49.4666C36.223 49.5169 36.0228 49.2217 35.9111 48.581ZM39.9938 48.101C40.5018 48.0124 41.2263 47.6481 42.1675 47.0082C42.231 46.9971 42.287 47.0111 42.3354 47.0503C42.3829 47.0836 42.4117 47.1292 42.4217 47.1869C42.2593 47.6197 41.871 48.0026 41.257 48.3357C40.643 48.6688 40.0406 48.8125 39.4497 48.7669C38.7798 48.7112 38.3273 48.4184 38.0921 47.8884C38.0615 47.7807 38.03 47.6345 37.9978 47.4498C37.9656 47.2651 37.9695 47.0146 38.0095 46.6984C38.0543 46.3753 38.1685 46.058 38.352 45.7465C38.5356 45.4349 38.7697 45.174 39.0542 44.9638C39.3387 44.7536 39.657 44.6178 40.0092 44.5564C40.3439 44.498 40.7393 44.548 41.1951 44.7064C41.4105 44.7819 41.588 44.8788 41.7276 44.9972C41.8672 45.1156 41.9496 45.247 41.9748 45.3913C41.9818 45.4317 41.986 45.4726 41.9872 45.514C42.0371 45.8681 41.9056 46.1201 41.5927 46.2698C41.4554 46.3354 41.2915 46.3848 41.101 46.418L39.8452 46.5835C39.4296 46.6559 39.1277 46.8008 38.9396 47.0179C38.8297 47.1382 38.7659 47.301 38.7482 47.5063C38.9841 48.0064 39.3993 48.2047 39.9938 48.101ZM41.0685 45.1568C40.9254 45.0866 40.781 45.0433 40.6355 45.0271C40.4899 45.0108 40.3709 45.0108 40.2786 45.0269C40.1862 45.043 40.0417 45.1009 39.8449 45.2006C39.6472 45.2946 39.4741 45.3932 39.3255 45.4964C38.9594 45.7506 38.794 45.9787 38.8292 46.1807C39.2981 46.1406 39.6479 46.1004 39.8788 46.0601C40.5195 45.9484 40.9429 45.8181 41.1489 45.6691C41.2774 45.5873 41.334 45.503 41.3189 45.4164C41.3008 45.3125 41.2173 45.226 41.0685 45.1568ZM48.8803 47.3364C48.788 47.3525 48.6848 47.3408 48.5709 47.3012C48.3477 47.2152 48.2483 47.1225 48.2726 47.0231C48.3207 46.8898 48.3679 46.6318 48.4141 46.249L48.512 45.429C48.5495 45.1667 48.5825 44.8784 48.611 44.5641L45.8885 42.6122C45.8391 42.5673 45.8108 42.5246 45.8038 42.4842C45.7967 42.4438 45.8143 42.408 45.8564 42.3769C45.9254 42.3292 46.0119 42.2963 46.1158 42.2781C46.2255 42.259 46.3381 42.2572 46.4539 42.2727C46.5753 42.2872 46.7319 42.3491 46.9234 42.4585C47.3008 42.6782 47.9426 43.17 48.849 43.9338C49.0165 42.8816 49.1506 42.201 49.2513 41.892C49.3511 41.5772 49.4372 41.3718 49.5097 41.2759C49.5869 41.1732 49.6597 41.1129 49.728 41.0951C49.802 41.0762 49.866 41.0681 49.92 41.0705C49.9739 41.073 50.0185 41.1069 50.0537 41.1721C49.9411 41.5843 49.8435 42.0474 49.7606 42.5615C49.6826 43.0688 49.6017 43.5944 49.5181 44.1383C49.2997 45.5801 49.0871 46.6461 48.8803 47.3364ZM51.3456 45.0508C51.2269 44.3697 51.4256 43.77 51.9419 43.2517C52.3521 42.8412 52.8802 42.5439 53.5261 42.3598C53.5607 42.3538 53.6416 42.3397 53.7685 42.3176C53.8955 42.2954 54.0724 42.3032 54.299 42.341C54.8005 42.4201 55.1736 42.6495 55.4182 43.0291C55.5157 43.1787 55.5745 43.3112 55.5946 43.4266C55.6137 43.5363 55.6244 43.6147 55.6267 43.6619C55.7525 44.3834 55.5775 44.9998 55.1016 45.511C54.6601 45.9806 54.0584 46.2818 53.2964 46.4147C52.7481 46.5103 52.3103 46.4558 51.9832 46.2511C51.6618 46.0455 51.4493 45.6454 51.3456 45.0508ZM51.9793 45.1544C52.0417 45.5123 52.1792 45.7381 52.3919 45.8319C52.5523 45.8991 52.8028 45.903 53.1433 45.8436C53.4839 45.7842 53.7795 45.7059 54.0302 45.6087C54.2809 45.5114 54.4962 45.3817 54.6761 45.2195C55.0607 44.8669 55.2021 44.3991 55.1005 43.8161C55.0401 43.4698 54.8984 43.203 54.6754 43.0159C54.4321 42.8145 54.146 42.7424 53.817 42.7998C53.5989 42.8795 53.3784 42.9625 53.1556 43.049C52.9385 43.1344 52.7406 43.2611 52.5617 43.4291C52.1723 43.7885 51.9782 44.3636 51.9793 45.1544ZM56.1592 44.7199C56.1431 44.6276 56.1123 44.5021 56.0668 44.3435C56.026 44.1781 55.9828 43.9983 55.937 43.8041C55.8912 43.6098 55.8507 43.4117 55.8155 43.2096C55.7803 43.0076 55.7654 42.8199 55.7708 42.6465C55.7804 42.2582 55.9036 42.0434 56.1402 42.0021C56.3099 42.0201 56.4268 42.0592 56.4908 42.1194C56.5606 42.1786 56.6046 42.2602 56.6227 42.3641C56.6398 42.4622 56.6355 42.5908 56.6097 42.75C56.5068 43.2854 56.4905 43.7551 56.561 44.1592C56.5842 44.2919 56.6175 44.4318 56.661 44.5789C56.8208 44.9495 57.172 45.0876 57.7146 44.9929C57.9974 44.9436 58.2572 44.8477 58.4941 44.7053C58.9478 44.4418 59.2401 44.1738 59.3709 43.9011C59.3766 43.6265 59.3623 43.3911 59.3281 43.1949C59.2929 42.9928 59.253 42.8154 59.2085 42.6626C59.1698 42.5087 59.1228 42.3415 59.0675 42.1608C59.0169 41.9733 58.9691 41.7675 58.9241 41.5434C58.9931 41.4957 59.0623 41.4658 59.1315 41.4537C59.2066 41.4406 59.2881 41.4651 59.3763 41.527C59.4702 41.588 59.5612 41.7178 59.6494 41.9166C59.7434 42.1143 59.8237 42.3531 59.8903 42.6329C59.9559 42.9069 60.0149 43.1941 60.0673 43.4942C60.1254 43.7934 60.1791 44.0844 60.2284 44.3672C60.2767 44.6443 60.33 44.8818 60.3884 45.0798C60.3302 45.1554 60.2693 45.1987 60.2058 45.2098C59.9749 45.25 59.7644 45.0488 59.5742 44.6062C59.5102 44.6828 59.3968 44.7828 59.234 44.9064C58.8893 45.1806 58.4632 45.3977 57.9558 45.5575C57.8596 45.5862 57.751 45.6111 57.6298 45.6322C57.5085 45.6534 57.3515 45.657 57.1588 45.643C56.9718 45.628 56.7829 45.5509 56.5921 45.4117C56.4013 45.2725 56.257 45.0419 56.1592 44.7199ZM64.6058 41.1771C64.3332 41.0463 64.0064 41.014 63.6254 41.0805C63.2675 41.1429 62.9472 41.2671 62.6644 41.4532C62.1295 41.7963 61.7884 42.177 61.6413 42.5952C61.5791 42.7845 61.5652 42.9772 61.5994 43.1735C61.6054 43.2081 61.6225 43.3063 61.6507 43.4679C61.6779 43.6237 61.744 43.8323 61.849 44.0935C61.9531 44.349 62.0292 44.6152 62.0776 44.8923C61.9573 44.9192 61.8617 44.9508 61.7907 44.9869C61.7197 45.0231 61.6582 45.0457 61.6063 45.0548C61.5543 45.0638 61.5041 45.0488 61.4557 45.0097C61.413 44.9695 61.357 44.8871 61.2876 44.7624C61.2758 44.7288 61.2472 44.6327 61.2017 44.4741C61.1562 44.3154 61.0989 44.1232 61.0297 43.8974C60.9664 43.6705 60.8937 43.4244 60.8118 43.1592C60.7346 42.8871 60.6584 42.6209 60.5833 42.3604C60.4191 41.7942 60.2961 41.3785 60.2141 41.1133C60.19 40.9747 60.2789 40.8879 60.4809 40.8526C60.6021 40.8315 60.7065 40.8668 60.7938 40.9586C60.8802 41.0447 60.9552 41.1506 61.0187 41.2763C61.0813 41.3962 61.1294 41.5187 61.1631 41.6437C61.2026 41.7676 61.2326 41.8546 61.2532 41.9045C61.8964 41.0905 62.7836 40.5849 63.915 40.3876C64.042 40.3655 64.1752 40.3452 64.3148 40.3268C64.3484 40.315 64.3912 40.3046 64.4432 40.2955C64.4951 40.2864 64.5531 40.312 64.6171 40.3722C64.6947 40.442 64.7436 40.5346 64.7637 40.65C64.814 40.9386 64.7614 41.1143 64.6058 41.1771ZM68.9792 41.494C68.9148 41.1246 68.9098 40.721 68.9643 40.2833C69.0178 39.8397 69.1405 39.4347 69.3323 39.0682C69.5242 38.7017 69.7848 38.3886 70.1142 38.1289C70.4437 37.8692 70.845 37.6981 71.3184 37.6156C71.3866 37.5977 71.4554 37.5828 71.5247 37.5707C72.2751 37.4398 72.9031 37.5623 73.4087 37.938C73.867 38.2804 74.1544 38.7864 74.2712 39.456C74.386 40.114 74.2959 40.7572 74.001 41.3856C74.0003 41.4154 74.0055 41.4621 74.0165 41.5256C74.0266 41.5833 74.0776 41.6369 74.1694 41.6863C74.2671 41.7347 74.3811 41.7743 74.5113 41.8051C74.6474 41.8349 74.7637 41.8711 74.8604 41.9138C74.957 41.9564 75.0099 42.0037 75.019 42.0556C75.027 42.1018 75.0307 42.1398 75.0299 42.1697C74.9745 42.2269 74.8944 42.2796 74.7898 42.3275C74.6842 42.3698 74.6106 42.3915 74.5692 42.3928C74.5326 42.3873 74.479 42.3698 74.4084 42.3405C74.3369 42.3054 74.2677 42.2669 74.2009 42.225C74.024 42.131 73.8762 42.0854 73.7578 42.0882C73.5747 42.3342 73.2682 42.5721 72.8383 42.8017C71.7473 43.3666 70.7848 43.4066 69.9508 42.9216C69.4138 42.6048 69.0899 42.129 68.9792 41.494ZM71.8989 42.5819C72.2453 42.5215 72.4881 42.4643 72.6273 42.4102C72.928 42.2924 73.1213 42.1219 73.2073 41.8987L71.3721 40.7377C71.3654 40.7329 71.361 40.7248 71.3589 40.7132L71.3514 40.67C71.3333 40.5661 71.3626 40.4955 71.4394 40.4583C71.5152 40.4154 71.6108 40.3838 71.7262 40.3637C71.8474 40.3426 71.9854 40.3661 72.14 40.4343C72.3004 40.5015 72.4581 40.587 72.613 40.6908C72.7669 40.7889 72.9189 40.8932 73.0691 41.0039C73.225 41.1135 73.3792 41.1966 73.5319 41.2533C73.7477 40.7517 73.8123 40.2349 73.7254 39.7028C73.703 39.5402 73.6742 39.3579 73.639 39.1558C73.5739 38.9531 73.4921 38.774 73.3936 38.6187C73.1937 38.2908 72.8042 38.1208 72.2252 38.1087C71.9438 38.0983 71.6819 38.1142 71.4395 38.1565C71.197 38.1988 71.0527 38.224 71.0066 38.232C70.6487 38.2944 70.3488 38.5192 70.1071 38.9063C69.9177 39.2189 69.7811 39.6293 69.6973 40.1376C69.6204 40.5495 69.6107 40.92 69.668 41.249C69.7727 41.8493 70.018 42.2497 70.4038 42.45C70.7887 42.6446 71.2871 42.6886 71.8989 42.5819ZM75.4241 41.3604C75.408 41.2681 75.3772 41.1426 75.3317 40.984C75.291 40.8186 75.2477 40.6388 75.2019 40.4446C75.1562 40.2503 75.1157 40.0522 75.0805 39.8502C75.0452 39.6481 75.0303 39.4604 75.0358 39.287C75.0454 38.8987 75.1685 38.6839 75.4052 38.6426C75.5749 38.6606 75.6917 38.6997 75.7557 38.7599C75.8255 38.8191 75.8695 38.9007 75.8876 39.0046C75.9047 39.1027 75.9004 39.2313 75.8746 39.3905C75.7717 39.9259 75.7555 40.3956 75.8259 40.7997C75.8491 40.9324 75.8824 41.0724 75.9259 41.2194C76.0857 41.59 76.4369 41.7281 76.9795 41.6334C77.2623 41.5841 77.5222 41.4882 77.7591 41.3458C78.2127 41.0823 78.505 40.8143 78.6359 40.5416C78.6415 40.2671 78.6272 40.0316 78.593 39.8354C78.5578 39.6333 78.5179 39.4559 78.4734 39.3031C78.4347 39.1492 78.3877 38.982 78.3324 38.8013C78.2819 38.6138 78.2341 38.408 78.1891 38.1839C78.2581 38.1362 78.3272 38.1063 78.3965 38.0942C78.4715 38.0811 78.5531 38.1056 78.6412 38.1675C78.7351 38.2285 78.8261 38.3583 78.9143 38.5571C79.0083 38.7548 79.0886 38.9936 79.1552 39.2734C79.2209 39.5475 79.2799 39.8346 79.3322 40.1347C79.3903 40.4339 79.444 40.7249 79.4933 41.0077C79.5417 41.2848 79.595 41.5223 79.6533 41.7203C79.5951 41.7959 79.5343 41.8392 79.4708 41.8503C79.2399 41.8905 79.0293 41.6893 78.8391 41.2467C78.7752 41.3233 78.6618 41.4233 78.4989 41.5469C78.1542 41.8211 77.7281 42.0382 77.2207 42.198C77.1246 42.2267 77.0159 42.2516 76.8947 42.2727C76.7735 42.2939 76.6165 42.2975 76.4237 42.2835C76.2367 42.2685 76.0478 42.1914 75.857 42.0522C75.6662 41.913 75.5219 41.6824 75.4241 41.3604ZM81.8312 40.8052C82.3392 40.7166 83.0637 40.3524 84.0049 39.7124C84.0684 39.7014 84.1244 39.7154 84.1728 39.7545C84.2203 39.7879 84.249 39.8334 84.2591 39.8911C84.0967 40.3239 83.7084 40.7069 83.0944 41.0399C82.4804 41.373 81.878 41.5167 81.2871 41.4711C80.6172 41.4154 80.1647 41.1226 79.9295 40.5926C79.8988 40.485 79.8674 40.3388 79.8352 40.1541C79.803 39.9694 79.8069 39.7189 79.8469 39.4026C79.8917 39.0796 80.0058 38.7623 80.1894 38.4507C80.373 38.1391 80.6071 37.8783 80.8916 37.668C81.1761 37.4578 81.4944 37.322 81.8465 37.2606C82.1813 37.2022 82.5767 37.2523 83.0325 37.4107C83.2479 37.4861 83.4254 37.5831 83.565 37.7015C83.7046 37.8199 83.787 37.9512 83.8122 38.0955C83.8192 38.1359 83.8234 38.1768 83.8246 38.2183C83.8745 38.5724 83.743 38.8243 83.43 38.974C83.2928 39.0396 83.1289 39.089 82.9384 39.1222L81.6826 39.2877C81.267 39.3602 80.9651 39.505 80.7769 39.7222C80.6671 39.8425 80.6033 40.0053 80.5855 40.2106C80.8214 40.7107 81.2367 40.9089 81.8312 40.8052ZM82.9059 37.861C82.7628 37.7908 82.6184 37.7476 82.4728 37.7313C82.3273 37.7151 82.2083 37.715 82.1159 37.7311C82.0236 37.7472 81.879 37.8051 81.6823 37.9049C81.4846 37.9988 81.3114 38.0974 81.1629 38.2006C80.7968 38.4548 80.6314 38.6829 80.6666 38.8849C81.1355 38.8448 81.4853 38.8046 81.7162 38.7644C82.3569 38.6526 82.7803 38.5223 82.9863 38.3734C83.1147 38.2915 83.1714 38.2073 83.1563 38.1207C83.1382 38.0168 83.0547 37.9302 82.9059 37.861ZM88.6675 36.9812C88.3949 36.8503 88.0681 36.8181 87.6871 36.8845C87.3292 36.9469 87.0089 37.0712 86.7261 37.2573C86.1912 37.6004 85.8501 37.981 85.703 38.3992C85.6408 38.5885 85.6269 38.7813 85.6611 38.9775C85.6671 39.0122 85.6842 39.1103 85.7124 39.2719C85.7396 39.4278 85.8057 39.6363 85.9107 39.8975C86.0148 40.153 86.0909 40.4193 86.1392 40.6963C86.019 40.7232 85.9234 40.7548 85.8524 40.791C85.7814 40.8271 85.7199 40.8497 85.668 40.8588C85.616 40.8679 85.5658 40.8528 85.5174 40.8137C85.4747 40.7736 85.4187 40.6911 85.3493 40.5664C85.3375 40.5328 85.3089 40.4367 85.2634 40.2781C85.2179 40.1195 85.1605 39.9272 85.0914 39.7014C85.0281 39.4745 84.9554 39.2285 84.8735 38.9632C84.7963 38.6912 84.7201 38.4249 84.645 38.1644C84.4808 37.5983 84.3578 37.1826 84.2758 36.9173C84.2517 36.7788 84.3406 36.6919 84.5426 36.6567C84.6638 36.6355 84.7681 36.6709 84.8555 36.7627C84.9419 36.8487 85.0169 36.9546 85.0804 37.0803C85.143 37.2003 85.1911 37.3227 85.2248 37.4477C85.2643 37.5717 85.2943 37.6586 85.3149 37.7086C85.9581 36.8946 86.8453 36.3889 87.9767 36.1916C88.1037 36.1695 88.2369 36.1492 88.3765 36.1308C88.4101 36.119 88.4529 36.1086 88.5048 36.0995C88.5568 36.0905 88.6148 36.116 88.6788 36.1763C88.7564 36.246 88.8053 36.3386 88.8254 36.454C88.8757 36.7426 88.8231 36.9184 88.6675 36.9812ZM92.2555 42.9754C92.1816 43.2678 92.0609 43.4286 91.8935 43.4578C91.8127 43.4719 91.7456 43.445 91.6921 43.377C91.6454 43.3138 91.6308 43.2301 91.6483 43.1259C91.6817 42.5669 91.7568 41.9234 91.8737 41.1952C91.9963 40.466 92.0774 39.976 92.117 39.7253C91.8797 39.5585 91.4918 39.2098 90.9532 38.6792C89.8468 37.5874 89.2831 36.9809 89.2619 36.8597C89.2609 36.8539 89.2628 36.8476 89.2676 36.8409L89.5392 36.4545C90.0687 36.7963 90.7881 37.4084 91.6973 38.2907C91.9263 38.5125 92.1107 38.7004 92.2506 38.8544C92.3295 38.5908 92.3885 38.3664 92.4276 38.1812C92.4657 37.9902 92.4958 37.8392 92.5181 37.7282C92.5452 37.6105 92.5806 37.4556 92.6245 37.2636C92.7372 36.7503 92.9023 36.094 93.1198 35.2948C93.1677 35.2626 93.2205 35.2415 93.2782 35.2314C93.4225 35.2063 93.533 35.2257 93.6096 35.2896C93.6377 35.3145 93.6553 35.3471 93.6623 35.3875C93.6684 35.4221 93.6686 35.4578 93.6631 35.4944L92.2555 42.9754ZM98.9578 35.9272C98.9747 36.1265 99.0149 36.408 99.0783 36.7716C99.1407 37.1295 99.2715 37.5557 99.4708 38.0503L98.8472 38.516L98.1248 36.2152C97.9177 36.2216 97.8046 36.17 97.7855 36.0603C97.7714 35.9795 97.801 35.8762 97.8742 35.7504C97.9532 35.6236 98.0097 35.5216 98.0438 35.4442C98.0769 35.3611 98.0888 35.2758 98.0795 35.1882C98.0749 35.0938 98.0612 34.9297 98.0382 34.6958C98.0153 34.4619 97.9869 34.214 97.9532 33.9523C97.9252 33.6895 97.8969 33.4417 97.8681 33.2088C97.8452 32.9749 97.8257 32.8117 97.8096 32.7194C97.9144 32.5702 97.9932 32.4762 98.0459 32.4373C98.1771 32.3371 98.2802 32.3488 98.3553 32.4725L98.779 35.209C100.205 34.9603 101.046 34.7185 101.302 34.4835L100.825 31.7474C100.843 31.6432 100.996 31.566 101.284 31.5157C101.348 31.5046 101.4 31.4984 101.442 31.4971C101.461 31.6068 101.493 31.7737 101.538 31.9978C101.588 32.2152 101.64 32.4647 101.695 32.7466C101.756 33.0274 101.82 33.3255 101.887 33.641C101.953 33.9507 102.016 34.246 102.077 34.5268C102.197 35.1125 102.287 35.5429 102.347 35.818C102.508 36.5036 102.747 37.0389 103.064 37.4237C102.822 37.5729 102.546 37.6747 102.234 37.7291C101.854 37.1173 101.562 36.279 101.358 35.2142C100.975 35.2691 100.715 35.3086 100.576 35.3328C100.437 35.3569 100.283 35.3928 100.113 35.4403C99.7591 35.5258 99.3741 35.6881 98.9578 35.9272ZM105.304 36.7119C105.812 36.6233 106.537 36.2591 107.478 35.6191C107.541 35.6081 107.597 35.6221 107.646 35.6612C107.693 35.6946 107.722 35.7401 107.732 35.7978C107.57 36.2306 107.181 36.6136 106.567 36.9466C105.953 37.2797 105.351 37.4235 104.76 37.3778C104.09 37.3221 103.638 37.0293 103.402 36.4993C103.372 36.3917 103.34 36.2455 103.308 36.0608C103.276 35.8761 103.28 35.6256 103.32 35.3093C103.365 34.9863 103.479 34.669 103.662 34.3574C103.846 34.0458 104.08 33.785 104.365 33.5747C104.649 33.3645 104.967 33.2287 105.319 33.1673C105.654 33.109 106.05 33.159 106.505 33.3174C106.721 33.3928 106.898 33.4898 107.038 33.6082C107.178 33.7266 107.26 33.8579 107.285 34.0022C107.292 34.0426 107.296 34.0835 107.298 34.125C107.347 34.4791 107.216 34.731 106.903 34.8807C106.766 34.9463 106.602 34.9957 106.411 35.0289L105.155 35.1944C104.74 35.2669 104.438 35.4117 104.25 35.6289C104.14 35.7492 104.076 35.912 104.058 36.1173C104.294 36.6174 104.71 36.8156 105.304 36.7119ZM106.379 33.7677C106.236 33.6975 106.091 33.6543 105.946 33.638C105.8 33.6218 105.681 33.6217 105.589 33.6378C105.496 33.6539 105.352 33.7118 105.155 33.8116C104.957 33.9055 104.784 34.0041 104.636 34.1073C104.27 34.3615 104.104 34.5896 104.14 34.7916C104.608 34.7515 104.958 34.7113 105.189 34.6711C105.83 34.5593 106.253 34.429 106.459 34.2801C106.588 34.1982 106.644 34.114 106.629 34.0274C106.611 33.9235 106.528 33.8369 106.379 33.7677ZM112.14 32.8879C111.868 32.757 111.541 32.7248 111.16 32.7912C110.802 32.8536 110.482 32.9779 110.199 33.164C109.664 33.5071 109.323 33.8877 109.176 34.3059C109.114 34.4952 109.1 34.688 109.134 34.8842C109.14 34.9189 109.157 35.017 109.185 35.1786C109.213 35.3345 109.279 35.543 109.384 35.8042C109.488 36.0597 109.564 36.326 109.612 36.603C109.492 36.6299 109.396 36.6615 109.325 36.6977C109.254 36.7338 109.193 36.7565 109.141 36.7655C109.089 36.7746 109.039 36.7595 108.99 36.7204C108.948 36.6803 108.892 36.5978 108.822 36.4731C108.81 36.4395 108.782 36.3434 108.736 36.1848C108.691 36.0262 108.633 35.8339 108.564 35.6081C108.501 35.3812 108.428 35.1352 108.346 34.8699C108.269 34.5979 108.193 34.3316 108.118 34.0711C107.954 33.505 107.831 33.0893 107.749 32.824C107.725 32.6855 107.814 32.5986 108.016 32.5634C108.137 32.5422 108.241 32.5776 108.328 32.6694C108.415 32.7554 108.49 32.8613 108.553 32.987C108.616 33.107 108.664 33.2294 108.698 33.3544C108.737 33.4784 108.767 33.5653 108.788 33.6153C109.431 32.8013 110.318 32.2956 111.45 32.0983C111.577 32.0762 111.71 32.0559 111.849 32.0375C111.883 32.0257 111.926 32.0153 111.978 32.0062C112.03 31.9972 112.088 32.0227 112.152 32.083C112.229 32.1527 112.278 32.2453 112.298 32.3607C112.349 32.6493 112.296 32.8251 112.14 32.8879ZM114.993 35.0224C115.501 34.9338 116.225 34.5695 117.167 33.9296C117.23 33.9185 117.286 33.9325 117.334 33.9717C117.382 34.005 117.411 34.0506 117.421 34.1083C117.258 34.5411 116.87 34.924 116.256 35.2571C115.642 35.5902 115.04 35.7339 114.449 35.6882C113.779 35.6326 113.326 35.3397 113.091 34.8098C113.06 34.7021 113.029 34.5559 112.997 34.3712C112.965 34.1865 112.969 33.936 113.009 33.6197C113.053 33.2967 113.168 32.9794 113.351 32.6678C113.535 32.3563 113.769 32.0954 114.053 31.8852C114.338 31.675 114.656 31.5392 115.008 31.4778C115.343 31.4194 115.738 31.4694 116.194 31.6278C116.41 31.7033 116.587 31.8002 116.727 31.9186C116.866 32.037 116.949 32.1684 116.974 32.3127C116.981 32.3531 116.985 32.394 116.986 32.4354C117.036 32.7895 116.905 33.0414 116.592 33.1912C116.454 33.2567 116.291 33.3061 116.1 33.3394L114.844 33.5048C114.429 33.5773 114.127 33.7221 113.939 33.9393C113.829 34.0596 113.765 34.2224 113.747 34.4277C113.983 34.9278 114.398 35.126 114.993 35.0224ZM116.068 32.0782C115.924 32.0079 115.78 31.9647 115.635 31.9485C115.489 31.9322 115.37 31.9321 115.278 31.9483C115.185 31.9644 115.041 32.0223 114.844 32.122C114.646 32.216 114.473 32.3146 114.325 32.4178C113.958 32.672 113.793 32.9001 113.828 33.1021C114.297 33.062 114.647 33.0218 114.878 32.9815C115.519 32.8698 115.942 32.7394 116.148 32.5905C116.276 32.5086 116.333 32.4244 116.318 32.3378C116.3 32.2339 116.216 32.1474 116.068 32.0782Z" fill="#282828"/>
<defs>
<filter id="filter0_f_9_7980" x="55.2936" y="40.0787" width="129.2" height="126.2" filterUnits="userSpaceOnUse" color-interpolation-filters="sRGB">
<feFlood flood-opacity="0" result="BackgroundImageFix"/>
<feBlend mode="normal" in="SourceGraphic" in2="BackgroundImageFix" result="shape"/>
<feGaussianBlur stdDeviation="16.8" result="effect1_foregroundBlur_9_7980"/>
</filter>
<linearGradient id="paint0_linear_9_7980" x1="135.808" y1="132.782" x2="8.80502" y2="19.7835" gradientUnits="userSpaceOnUse">
<stop stop-color="#FFF199"/>
<stop offset="0.05" stop-color="#F8E47F"/>
<stop offset="0.09" stop-color="#F4DD6F"/>
<stop offset="0.12" stop-color="#F2DA69"/>
<stop offset="0.38" stop-color="#F8E577"/>
<stop offset="0.59" stop-color="#FAE97D"/>
<stop offset="0.85" stop-color="#F4E06D"/>
<stop offset="0.95" stop-color="#F3DD74"/>
<stop offset="1" stop-color="#F2DA79"/>
</linearGradient>
</defs>
</svg>
